<svg width="342" height="118" viewBox="0 0 342 118" fill="none" xmlns="http://www.w3.org/2000/svg">
<g filter="url(#filter0_d_20_1331)">
<rect x="20" y="5" width="302" height="78" rx="39" fill="url(#paint0_linear_20_1331)"/>
</g>
<g filter="url(#filter1_i_20_1331)">
<path d="M113.781 33.7V51H111.506V38.1L105.756 51H104.156L98.3812 38.075V51H96.1062V33.7H98.5562L104.956 48L111.356 33.7H113.781ZM130.689 37.3L122.439 57.45H120.089L122.789 50.85L117.264 37.3H119.789L124.089 48.4L128.339 37.3H130.689ZM153.791 38.675C153.791 40.125 153.291 41.3333 152.291 42.3C151.308 43.25 149.8 43.725 147.766 43.725H144.416V51H142.141V33.575H147.766C149.733 33.575 151.225 34.05 152.241 35C153.275 35.95 153.791 37.175 153.791 38.675ZM147.766 41.85C149.033 41.85 149.966 41.575 150.566 41.025C151.166 40.475 151.466 39.6917 151.466 38.675C151.466 36.525 150.233 35.45 147.766 35.45H144.416V41.85H147.766ZM160.144 39.525C160.544 38.7417 161.111 38.1333 161.844 37.7C162.594 37.2667 163.502 37.05 164.569 37.05V39.4H163.969C161.419 39.4 160.144 40.7833 160.144 43.55V51H157.869V37.3H160.144V39.525ZM174.42 51.225C173.137 51.225 171.97 50.9333 170.92 50.35C169.887 49.7667 169.07 48.9417 168.47 47.875C167.887 46.7917 167.595 45.5417 167.595 44.125C167.595 42.725 167.895 41.4917 168.495 40.425C169.112 39.3417 169.945 38.5167 170.995 37.95C172.045 37.3667 173.22 37.075 174.52 37.075C175.82 37.075 176.995 37.3667 178.045 37.95C179.095 38.5167 179.92 39.3333 180.52 40.4C181.137 41.4667 181.445 42.7083 181.445 44.125C181.445 45.5417 181.128 46.7917 180.495 47.875C179.878 48.9417 179.037 49.7667 177.97 50.35C176.903 50.9333 175.72 51.225 174.42 51.225ZM174.42 49.225C175.237 49.225 176.003 49.0333 176.72 48.65C177.437 48.2667 178.012 47.6917 178.445 46.925C178.895 46.1583 179.12 45.225 179.12 44.125C179.12 43.025 178.903 42.0917 178.47 41.325C178.037 40.5583 177.47 39.9917 176.77 39.625C176.07 39.2417 175.312 39.05 174.495 39.05C173.662 39.05 172.895 39.2417 172.195 39.625C171.512 39.9917 170.962 40.5583 170.545 41.325C170.128 42.0917 169.92 43.025 169.92 44.125C169.92 45.2417 170.12 46.1833 170.52 46.95C170.937 47.7167 171.487 48.2917 172.17 48.675C172.853 49.0417 173.603 49.225 174.42 49.225ZM186.911 35.075C186.478 35.075 186.111 34.925 185.811 34.625C185.528 34.325 185.386 33.9583 185.386 33.525C185.386 33.0917 185.528 32.725 185.811 32.425C186.111 32.125 186.478 31.975 186.911 31.975C187.345 31.975 187.703 32.125 187.986 32.425C188.286 32.725 188.436 33.0917 188.436 33.525C188.436 33.9583 188.286 34.325 187.986 34.625C187.703 34.925 187.345 35.075 186.911 35.075ZM188.036 53.975C188.036 55.1917 187.728 56.0833 187.111 56.65C186.495 57.2167 185.595 57.5 184.411 57.5H183.086V55.575H184.036C184.67 55.575 185.111 55.45 185.361 55.2C185.628 54.95 185.761 54.525 185.761 53.925V37.3H188.036V53.975ZM205.637 43.625C205.637 44.0583 205.612 44.5167 205.562 45H194.612C194.696 46.35 195.154 47.4083 195.987 48.175C196.837 48.925 197.862 49.3 199.062 49.3C200.046 49.3 200.862 49.075 201.512 48.625C202.179 48.1583 202.646 47.5417 202.912 46.775H205.362C204.996 48.0917 204.262 49.1667 203.162 50C202.062 50.8167 200.696 51.225 199.062 51.225C197.762 51.225 196.596 50.9333 195.562 50.35C194.546 49.7667 193.746 48.9417 193.162 47.875C192.579 46.7917 192.287 45.5417 192.287 44.125C192.287 42.7083 192.571 41.4667 193.137 40.4C193.704 39.3333 194.496 38.5167 195.512 37.95C196.546 37.3667 197.729 37.075 199.062 37.075C200.362 37.075 201.512 37.3583 202.512 37.925C203.512 38.4917 204.279 39.275 204.812 40.275C205.362 41.2583 205.637 42.375 205.637 43.625ZM203.287 43.15C203.287 42.2833 203.096 41.5417 202.712 40.925C202.329 40.2917 201.804 39.8167 201.137 39.5C200.487 39.1667 199.762 39 198.962 39C197.812 39 196.829 39.3667 196.012 40.1C195.212 40.8333 194.754 41.85 194.637 43.15H203.287ZM209.04 44.125C209.04 42.7083 209.324 41.475 209.89 40.425C210.457 39.3583 211.24 38.5333 212.24 37.95C213.257 37.3667 214.415 37.075 215.715 37.075C217.399 37.075 218.782 37.4833 219.865 38.3C220.965 39.1167 221.69 40.25 222.04 41.7H219.59C219.357 40.8667 218.899 40.2083 218.215 39.725C217.549 39.2417 216.715 39 215.715 39C214.415 39 213.365 39.45 212.565 40.35C211.765 41.2333 211.365 42.4917 211.365 44.125C211.365 45.775 211.765 47.05 212.565 47.95C213.365 48.85 214.415 49.3 215.715 49.3C216.715 49.3 217.549 49.0667 218.215 48.6C218.882 48.1333 219.34 47.4667 219.59 46.6H222.04C221.674 48 220.94 49.125 219.84 49.975C218.74 50.8083 217.365 51.225 215.715 51.225C214.415 51.225 213.257 50.9333 212.24 50.35C211.24 49.7667 210.457 48.9417 209.89 47.875C209.324 46.8083 209.04 45.5583 209.04 44.125ZM229.101 39.175V47.25C229.101 47.9167 229.243 48.3917 229.526 48.675C229.809 48.9417 230.301 49.075 231.001 49.075H232.676V51H230.626C229.359 51 228.409 50.7083 227.776 50.125C227.143 49.5417 226.826 48.5833 226.826 47.25V39.175H225.051V37.3H226.826V33.85H229.101V37.3H232.676V39.175H229.101ZM241.532 51.225C240.482 51.225 239.541 51.05 238.707 50.7C237.874 50.3333 237.216 49.8333 236.732 49.2C236.249 48.55 235.982 47.8083 235.932 46.975H238.282C238.349 47.6583 238.666 48.2167 239.232 48.65C239.816 49.0833 240.574 49.3 241.507 49.3C242.374 49.3 243.057 49.1083 243.557 48.725C244.057 48.3417 244.307 47.8583 244.307 47.275C244.307 46.675 244.041 46.2333 243.507 45.95C242.974 45.65 242.149 45.3583 241.032 45.075C240.016 44.8083 239.182 44.5417 238.532 44.275C237.899 43.9917 237.349 43.5833 236.882 43.05C236.432 42.5 236.207 41.7833 236.207 40.9C236.207 40.2 236.416 39.5583 236.832 38.975C237.249 38.3917 237.841 37.9333 238.607 37.6C239.374 37.25 240.249 37.075 241.232 37.075C242.749 37.075 243.974 37.4583 244.907 38.225C245.841 38.9917 246.341 40.0417 246.407 41.375H244.132C244.082 40.6583 243.791 40.0833 243.257 39.65C242.741 39.2167 242.041 39 241.157 39C240.341 39 239.691 39.175 239.207 39.525C238.724 39.875 238.482 40.3333 238.482 40.9C238.482 41.35 238.624 41.725 238.907 42.025C239.207 42.3083 239.574 42.5417 240.007 42.725C240.457 42.8917 241.074 43.0833 241.857 43.3C242.841 43.5667 243.641 43.8333 244.257 44.1C244.874 44.35 245.399 44.7333 245.832 45.25C246.282 45.7667 246.516 46.4417 246.532 47.275C246.532 48.025 246.324 48.7 245.907 49.3C245.491 49.9 244.899 50.375 244.132 50.725C243.382 51.0583 242.516 51.225 241.532 51.225Z" fill="white"/>
</g>
<defs>
<filter id="filter0_d_20_1331" x="0" y="0" width="342" height="118" filterUnits="userSpaceOnUse" color-interpolation-filters="sRGB">
<feFlood flood-opacity="0" result="BackgroundImageFix"/>
<feColorMatrix in="SourceAlpha" type="matrix" values="0 0 0 0 0 0 0 0 0 0 0 0 0 0 0 0 0 0 127 0" result="hardAlpha"/>
<feOffset dy="15"/>
<feGaussianBlur stdDeviation="10"/>
<feComposite in2="hardAlpha" operator="out"/>
<feColorMatrix type="matrix" values="0 0 0 0 0.376471 0 0 0 0 0.78549 0 0 0 0 0.960784 0 0 0 0.65 0"/>
<feBlend mode="normal" in2="BackgroundImageFix" result="effect1_dropShadow_20_1331"/>
<feBlend mode="normal" in="SourceGraphic" in2="effect1_dropShadow_20_1331" result="shape"/>
</filter>
<filter id="filter1_i_20_1331" x="96.1061" y="31.975" width="150.426" height="26.525" filterUnits="userSpaceOnUse" color-interpolation-filters="sRGB">
<feFlood flood-opacity="0" result="BackgroundImageFix"/>
<feBlend mode="normal" in="SourceGraphic" in2="BackgroundImageFix" result="shape"/>
<feColorMatrix in="SourceAlpha" type="matrix" values="0 0 0 0 0 0 0 0 0 0 0 0 0 0 0 0 0 0 127 0" result="hardAlpha"/>
<feOffset dy="1"/>
<feGaussianBlur stdDeviation="1"/>
<feComposite in2="hardAlpha" operator="arithmetic" k2="-1" k3="1"/>
<feColorMatrix type="matrix" values="0 0 0 0 0.858333 0 0 0 0 0.858333 0 0 0 0 0.858333 0 0 0 1 0"/>
<feBlend mode="normal" in2="shape" result="effect1_innerShadow_20_1331"/>
</filter>
<linearGradient id="paint0_linear_20_1331" x1="20" y1="44" x2="322" y2="44" gradientUnits="userSpaceOnUse">
<stop stop-color="#8AEDF6"/>
<stop offset="1" stop-color="#60A2F5"/>
</linearGradient>
</defs>
</svg>
